<svg width="189" height="112" viewBox="0 0 189 112" fill="none" xmlns="http://www.w3.org/2000/svg">
<path d="M104.942 99V95.7969L106.942 95.2969V78.3438L104.567 77.8438V74.625H112.427V95.2969L114.411 95.7969V99H104.942ZM124.785 99.3281C123.129 99.3281 121.681 98.974 120.441 98.2656C119.212 97.5469 118.254 96.5677 117.566 95.3281C116.889 94.0885 116.551 92.6875 116.551 91.125V90.5469C116.551 88.8281 116.853 87.3073 117.457 85.9844C118.061 84.6615 118.946 83.6302 120.113 82.8906C121.28 82.1406 122.712 81.7708 124.41 81.7812C125.941 81.7812 127.233 82.0781 128.285 82.6719C129.347 83.2552 130.155 84.1198 130.707 85.2656C131.259 86.401 131.535 87.8021 131.535 89.4688V92.2969H122.238L122.222 92.4062C122.306 92.9375 122.483 93.4115 122.754 93.8281C123.035 94.2344 123.42 94.5573 123.91 94.7969C124.4 95.0365 125.004 95.1562 125.722 95.1562C126.431 95.1562 127.124 95.0781 127.801 94.9219C128.488 94.7552 129.212 94.4948 129.972 94.1406L131.222 97.4531C130.462 97.9948 129.535 98.4427 128.441 98.7969C127.347 99.151 126.129 99.3281 124.785 99.3281ZM122.238 88.9062H126.535V88.5C126.535 87.8958 126.472 87.3906 126.347 86.9844C126.233 86.5781 126.03 86.2708 125.738 86.0625C125.446 85.8542 125.045 85.75 124.535 85.75C123.983 85.75 123.54 85.8854 123.207 86.1562C122.884 86.4167 122.644 86.7812 122.488 87.25C122.342 87.7083 122.238 88.2344 122.176 88.8281L122.238 88.9062ZM140.409 99.3281C138.773 99.3281 137.44 98.8646 136.409 97.9375C135.377 97.0104 134.862 95.776 134.862 94.2344C134.862 93.1823 135.143 92.25 135.706 91.4375C136.279 90.625 137.133 89.9896 138.268 89.5312C139.414 89.0625 140.846 88.8281 142.565 88.8281H144.331V87.8281C144.331 87.151 144.138 86.5781 143.752 86.1094C143.367 85.6302 142.758 85.3906 141.924 85.3906C141.57 85.3906 141.237 85.4375 140.924 85.5312C140.622 85.6146 140.346 85.7396 140.096 85.9062L139.721 88.0625H135.862L135.784 83.3594C136.742 82.9323 137.742 82.5625 138.784 82.25C139.836 81.9375 141.008 81.7812 142.299 81.7812C144.601 81.7812 146.43 82.3125 147.784 83.375C149.138 84.4271 149.815 85.9323 149.815 87.8906V94.125C149.815 94.3646 149.815 94.599 149.815 94.8281C149.825 95.0573 149.851 95.276 149.893 95.4844L151.721 95.7969V99H145.315C145.18 98.8125 145.034 98.5625 144.877 98.25C144.721 97.9375 144.612 97.625 144.549 97.3125C144.039 97.9479 143.466 98.4427 142.831 98.7969C142.195 99.151 141.388 99.3281 140.409 99.3281ZM142.096 95.4531C142.492 95.4531 142.888 95.375 143.284 95.2188C143.69 95.0521 144.039 94.8073 144.331 94.4844V92.0469H142.627C141.888 92.0469 141.315 92.2083 140.909 92.5312C140.513 92.8542 140.315 93.2812 140.315 93.8125C140.315 94.3229 140.482 94.724 140.815 95.0156C141.148 95.3073 141.575 95.4531 142.096 95.4531ZM154.736 99V95.7969L156.704 95.2969V85.8125L154.361 85.3125V82.0938H161.876L162.001 84.1562L162.033 84.5781C162.408 83.6198 162.871 82.9167 163.423 82.4688C163.986 82.0104 164.684 81.7812 165.517 81.7812C165.746 81.7812 166.017 81.8021 166.329 81.8438C166.642 81.875 166.96 81.9375 167.283 82.0312L166.736 87.0625L164.392 86.9531C163.85 86.9323 163.423 86.9948 163.111 87.1406C162.809 87.276 162.501 87.5052 162.189 87.8281V95.2969L164.158 95.7969V99H154.736ZM169.5 99V95.7969L171.469 95.2969V85.8125L169.125 85.3125V82.0938H176.656L176.844 84.4531C177.406 83.6094 178.094 82.9531 178.906 82.4844C179.729 82.0156 180.661 81.7812 181.703 81.7812C183.286 81.7812 184.536 82.3177 185.453 83.3906C186.37 84.4635 186.828 86.1667 186.828 88.5V95.2969L188.797 95.7969V99H179.734V95.7969L181.328 95.2969V88.4844C181.328 87.5781 181.146 86.9375 180.781 86.5625C180.417 86.1771 179.896 85.9844 179.219 85.9844C178.708 85.9844 178.271 86.0781 177.906 86.2656C177.542 86.4427 177.224 86.7135 176.953 87.0781V95.2969L178.359 95.7969V99H169.5Z" fill="white" fill-opacity="0.7"/>
<rect x="76" y="85" width="17" height="17" fill="white" fill-opacity="0.7"/>
<circle cx="74" cy="83" r="8" fill="white" fill-opacity="0.7"/>
<circle cx="93.5" cy="93.5" r="5.5" fill="#5A86BF"/>
<path d="M60.7808 83.4202C50.84 87.7234 39.6514 88.1629 29.4038 84.6527C19.1562 81.1426 10.5868 73.9353 5.37222 64.4409C0.157623 54.9466 -1.32705 43.8482 1.20866 33.317C3.74438 22.7859 10.118 13.5796 19.0827 7.49937C28.0474 1.4191 38.9581 -1.09772 49.6804 0.441282C60.4026 1.98028 70.1649 7.46437 77.0575 15.8207C83.95 24.177 87.4769 34.8043 86.9481 45.6235C86.4194 56.4427 81.873 66.6754 74.1984 74.3198L61.1045 61.1741C65.5056 56.7903 68.1128 50.9222 68.4161 44.7178C68.7193 38.5133 66.6968 32.4189 62.7441 27.6268C58.7915 22.8347 53.1931 19.6898 47.0442 18.8072C40.8954 17.9247 34.6384 19.368 29.4975 22.8548C24.3565 26.3417 20.7015 31.6211 19.2473 37.6604C17.7932 43.6997 18.6446 50.0642 21.635 55.5089C24.6254 60.9537 29.5396 65.0868 35.4163 67.0997C41.293 69.1127 47.7093 68.8607 53.4099 66.3929L60.7808 83.4202Z" fill="white" fill-opacity="0.7"/>
</svg>
