<svg width="35" height="35" viewBox="0 0 35 35" fill="none" xmlns="http://www.w3.org/2000/svg">
<path d="M17.5003 23.3333C20.7174 23.3333 23.3337 20.7171 23.3337 17.5C23.3337 14.2829 20.7174 11.6667 17.5003 11.6667C14.2832 11.6667 11.667 14.2829 11.667 17.5C11.667 20.7171 14.2832 23.3333 17.5003 23.3333ZM17.5003 14.5833C19.0812 14.5833 20.417 15.9192 20.417 17.5C20.417 19.0808 19.0812 20.4167 17.5003 20.4167C15.9195 20.4167 14.5837 19.0808 14.5837 17.5C14.5837 15.9192 15.9195 14.5833 17.5003 14.5833Z" fill="black"/>
<path d="M4.14937 23.5317L5.60771 26.0546C6.38208 27.3919 8.24583 27.8935 9.58896 27.1192L10.3604 26.6729C11.2041 27.3366 12.1343 27.8822 13.1254 28.2946V29.1667C13.1254 30.7752 14.4335 32.0833 16.0421 32.0833H18.9587C20.5673 32.0833 21.8754 30.7752 21.8754 29.1667V28.2946C22.8661 27.8821 23.7963 27.3371 24.6404 26.6744L25.4119 27.1206C26.7579 27.8935 28.6173 27.3948 29.3946 26.0546L30.8515 23.5331C31.2379 22.8633 31.3428 22.0675 31.1429 21.3204C30.943 20.5734 30.4547 19.9363 29.7854 19.549L29.049 19.1231C29.2055 18.0477 29.2055 16.9552 29.049 15.8798L29.7854 15.454C30.4545 15.0664 30.9424 14.4292 31.1423 13.6823C31.3421 12.9354 31.2375 12.1397 30.8515 11.4698L29.3946 8.94833C28.6202 7.60666 26.7579 7.10354 25.4119 7.88083L24.6404 8.32708C23.7967 7.6634 22.8665 7.11783 21.8754 6.70541V5.83333C21.8754 4.22479 20.5673 2.91666 18.9587 2.91666H16.0421C14.4335 2.91666 13.1254 4.22479 13.1254 5.83333V6.70541C12.1347 7.11789 11.2045 7.66293 10.3604 8.32562L9.58896 7.87937C8.24146 7.105 6.38062 7.60666 5.60625 8.94687L4.14937 11.4683C3.76289 12.1381 3.65808 12.934 3.85796 13.681C4.05785 14.428 4.54608 15.0652 5.21542 15.4525L5.95187 15.8783C5.79471 16.9532 5.79471 18.0453 5.95187 19.1202L5.21542 19.546C4.54627 19.9339 4.05827 20.5713 3.85843 21.3185C3.65858 22.0656 3.76321 22.8615 4.14937 23.5317ZM8.99979 19.5096C8.83512 18.8524 8.75138 18.1775 8.75041 17.5C8.75041 16.8262 8.835 16.1496 8.99833 15.4904C9.07524 15.1832 9.04995 14.8593 8.92627 14.5677C8.80259 14.2761 8.58727 14.0328 8.31291 13.8746L6.67521 12.9267L8.13062 10.4052L9.80042 11.3706C10.0727 11.5282 10.3888 11.5932 10.7012 11.5558C11.0136 11.5185 11.3054 11.3809 11.5329 11.1635C12.5195 10.2252 13.7092 9.52702 15.0096 9.12333C15.3083 9.03214 15.5698 8.84746 15.7557 8.59648C15.9416 8.3455 16.042 8.04148 16.0421 7.72916V5.83333H18.9587V7.72916C18.9589 8.04148 19.0593 8.3455 19.2451 8.59648C19.431 8.84746 19.6925 9.03214 19.9912 9.12333C21.2913 9.5276 22.4809 10.2257 23.4679 11.1635C23.6957 11.3804 23.9875 11.5178 24.2997 11.5551C24.612 11.5925 24.928 11.5277 25.2004 11.3706L26.8687 10.4067L28.3271 12.9281L26.6879 13.8746C26.4137 14.033 26.1986 14.2763 26.0749 14.5678C25.9512 14.8593 25.9258 15.1832 26.0025 15.4904C26.1658 16.1496 26.2504 16.8262 26.2504 17.5C26.2504 18.1723 26.1658 18.849 26.001 19.5096C25.9245 19.817 25.9501 20.1409 26.0741 20.4324C26.198 20.724 26.4135 20.9672 26.6879 21.1254L28.3256 22.0719L26.8702 24.5933L25.2004 23.6294C24.9282 23.4716 24.6121 23.4064 24.2996 23.4438C23.9872 23.4811 23.6953 23.6189 23.4679 23.8365C22.4813 24.7748 21.2916 25.473 19.9912 25.8767C19.6925 25.9679 19.431 26.1525 19.2451 26.4035C19.0593 26.6545 18.9589 26.9585 18.9587 27.2708L18.9617 29.1667H16.0421V27.2708C16.042 26.9585 15.9416 26.6545 15.7557 26.4035C15.5698 26.1525 15.3083 25.9679 15.0096 25.8767C13.7095 25.4724 12.5199 24.7743 11.5329 23.8365C11.3059 23.6183 11.0138 23.4802 10.7012 23.4431C10.3885 23.406 10.0722 23.4719 9.80042 23.6308L8.13208 24.5962L6.67375 22.0748L8.31291 21.1254C8.58736 20.9672 8.80284 20.724 8.92677 20.4324C9.05069 20.1409 9.07633 19.817 8.99979 19.5096Z" fill="black"/>
</svg>
